<svg xml:space="preserve"
     xmlns="http://www.w3.org/2000/svg"
     xmlns:xlink="http://www.w3.org/1999/xlink"
     xmlns:html="http://www.w3.org/1999/xhtml"
id="bridgerton-02-downloads-by-day-day" x="0px" y="0px"
width="1920.000000px" height="1080.000000px"
viewBox="0 0 1920.000000 1080.000000" enable-background="new 0 0 1920.000000 1080.000000" role="img">
<title>
bridgerton-02-downloads-by-day-day
</title>
<desc>
Daily series for bridgerton-02: upeers_total solid, useeds_total dashed.
</desc>
<title>
bridgerton-02-downloads-by-day-day
</title>
 <g id="annotations">
<text x="960.000000" y="126.000000" font-family="Atkinson Hyperlegible" font-size="26.000000pt" text-anchor="middle" text-align="center" font-weight="600" font-style="normal"  style="fill:rgb(118,118,118); fill-opacity:1; stroke:rgb(118,118,118); stroke-opacity:0; stroke-width:0.5"> bridgerton-02 downloads by day</text>
 <g id="axes-lines">
<text x="960.000000" y="1007.000000" font-family="Atkinson Hyperlegible" font-size="18.000000pt" text-anchor="middle" text-align="center" font-weight="500" font-style="normal"  style="fill:rgb(118,118,118); fill-opacity:1; stroke:rgb(118,118,118); stroke-opacity:0; stroke-width:0.5"> DAY</text>
<text x="73.000000" y="540.000000" font-family="Atkinson Hyperlegible" font-size="18.000000pt" text-anchor="middle" text-align="center" dominant-baseline="central" font-weight="500" font-style="normal"  style="fill:rgb(118,118,118); fill-opacity:1; stroke:rgb(118,118,118); stroke-opacity:0; stroke-width:0.5" transform="rotate(-90,73,540)"> DOWNLOADERS</text>
 </g>
 <g id="tic-y-label-lines">
<line x1="218.000000" y1="756.047254" x2="1702.000000" y2="756.047254" style="fill:rgb(0,0,255); fill-opacity:0; stroke:rgb(242,242,242); stroke-opacity:1; stroke-width:4" />
<line x1="218.000000" y1="688.047254" x2="1702.000000" y2="688.047254" style="fill:rgb(0,0,255); fill-opacity:0; stroke:rgb(242,242,242); stroke-opacity:1; stroke-width:4" />
<line x1="218.000000" y1="620.047254" x2="1702.000000" y2="620.047254" style="fill:rgb(0,0,255); fill-opacity:0; stroke:rgb(242,242,242); stroke-opacity:1; stroke-width:4" />
<line x1="218.000000" y1="552.047254" x2="1702.000000" y2="552.047254" style="fill:rgb(0,0,255); fill-opacity:0; stroke:rgb(242,242,242); stroke-opacity:1; stroke-width:4" />
<line x1="218.000000" y1="484.047254" x2="1702.000000" y2="484.047254" style="fill:rgb(0,0,255); fill-opacity:0; stroke:rgb(242,242,242); stroke-opacity:1; stroke-width:4" />
<line x1="218.000000" y1="416.047254" x2="1702.000000" y2="416.047254" style="fill:rgb(0,0,255); fill-opacity:0; stroke:rgb(242,242,242); stroke-opacity:1; stroke-width:4" />
<line x1="218.000000" y1="348.047254" x2="1702.000000" y2="348.047254" style="fill:rgb(0,0,255); fill-opacity:0; stroke:rgb(242,242,242); stroke-opacity:1; stroke-width:4" />
<line x1="218.000000" y1="280.047254" x2="1702.000000" y2="280.047254" style="fill:rgb(0,0,255); fill-opacity:0; stroke:rgb(242,242,242); stroke-opacity:1; stroke-width:4" />
<line x1="218.000000" y1="212.047254" x2="1702.000000" y2="212.047254" style="fill:rgb(0,0,255); fill-opacity:0; stroke:rgb(242,242,242); stroke-opacity:1; stroke-width:4" />
<line x1="218.000000" y1="144.047254" x2="1702.000000" y2="144.047254" style="fill:rgb(0,0,255); fill-opacity:0; stroke:rgb(242,242,242); stroke-opacity:1; stroke-width:4" />
 </g>
 <g id="tic-x-labels">
<text x="200.000000" y="898.000000" font-family="Atkinson Hyperlegible" font-size="14.000000pt" text-anchor="middle" text-align="center" dominant-baseline="central" font-weight="400" font-style="normal"  style="fill:rgb(118,118,118); fill-opacity:1; stroke:rgb(118,118,118); stroke-opacity:0; stroke-width:0.5"> 1</text>
<text x="273.076923" y="898.000000" font-family="Atkinson Hyperlegible" font-size="14.000000pt" text-anchor="middle" text-align="center" dominant-baseline="central" font-weight="400" font-style="normal"  style="fill:rgb(118,118,118); fill-opacity:1; stroke:rgb(118,118,118); stroke-opacity:0; stroke-width:0.5"> 6</text>
<text x="346.153846" y="898.000000" font-family="Atkinson Hyperlegible" font-size="14.000000pt" text-anchor="middle" text-align="center" dominant-baseline="central" font-weight="400" font-style="normal"  style="fill:rgb(118,118,118); fill-opacity:1; stroke:rgb(118,118,118); stroke-opacity:0; stroke-width:0.5"> 11</text>
<text x="419.230769" y="898.000000" font-family="Atkinson Hyperlegible" font-size="14.000000pt" text-anchor="middle" text-align="center" dominant-baseline="central" font-weight="400" font-style="normal"  style="fill:rgb(118,118,118); fill-opacity:1; stroke:rgb(118,118,118); stroke-opacity:0; stroke-width:0.5"> 16</text>
<text x="492.307692" y="898.000000" font-family="Atkinson Hyperlegible" font-size="14.000000pt" text-anchor="middle" text-align="center" dominant-baseline="central" font-weight="400" font-style="normal"  style="fill:rgb(118,118,118); fill-opacity:1; stroke:rgb(118,118,118); stroke-opacity:0; stroke-width:0.5"> 21</text>
<text x="565.384615" y="898.000000" font-family="Atkinson Hyperlegible" font-size="14.000000pt" text-anchor="middle" text-align="center" dominant-baseline="central" font-weight="400" font-style="normal"  style="fill:rgb(118,118,118); fill-opacity:1; stroke:rgb(118,118,118); stroke-opacity:0; stroke-width:0.5"> 26</text>
<text x="638.461538" y="898.000000" font-family="Atkinson Hyperlegible" font-size="14.000000pt" text-anchor="middle" text-align="center" dominant-baseline="central" font-weight="400" font-style="normal"  style="fill:rgb(118,118,118); fill-opacity:1; stroke:rgb(118,118,118); stroke-opacity:0; stroke-width:0.5"> 31</text>
<text x="711.538462" y="898.000000" font-family="Atkinson Hyperlegible" font-size="14.000000pt" text-anchor="middle" text-align="center" dominant-baseline="central" font-weight="400" font-style="normal"  style="fill:rgb(118,118,118); fill-opacity:1; stroke:rgb(118,118,118); stroke-opacity:0; stroke-width:0.5"> 36</text>
<text x="784.615385" y="898.000000" font-family="Atkinson Hyperlegible" font-size="14.000000pt" text-anchor="middle" text-align="center" dominant-baseline="central" font-weight="400" font-style="normal"  style="fill:rgb(118,118,118); fill-opacity:1; stroke:rgb(118,118,118); stroke-opacity:0; stroke-width:0.5"> 41</text>
<text x="857.692308" y="898.000000" font-family="Atkinson Hyperlegible" font-size="14.000000pt" text-anchor="middle" text-align="center" dominant-baseline="central" font-weight="400" font-style="normal"  style="fill:rgb(118,118,118); fill-opacity:1; stroke:rgb(118,118,118); stroke-opacity:0; stroke-width:0.5"> 46</text>
<text x="930.769231" y="898.000000" font-family="Atkinson Hyperlegible" font-size="14.000000pt" text-anchor="middle" text-align="center" dominant-baseline="central" font-weight="400" font-style="normal"  style="fill:rgb(118,118,118); fill-opacity:1; stroke:rgb(118,118,118); stroke-opacity:0; stroke-width:0.5"> 51</text>
<text x="1003.846154" y="898.000000" font-family="Atkinson Hyperlegible" font-size="14.000000pt" text-anchor="middle" text-align="center" dominant-baseline="central" font-weight="400" font-style="normal"  style="fill:rgb(118,118,118); fill-opacity:1; stroke:rgb(118,118,118); stroke-opacity:0; stroke-width:0.5"> 56</text>
<text x="1076.923077" y="898.000000" font-family="Atkinson Hyperlegible" font-size="14.000000pt" text-anchor="middle" text-align="center" dominant-baseline="central" font-weight="400" font-style="normal"  style="fill:rgb(118,118,118); fill-opacity:1; stroke:rgb(118,118,118); stroke-opacity:0; stroke-width:0.5"> 61</text>
<text x="1150.000000" y="898.000000" font-family="Atkinson Hyperlegible" font-size="14.000000pt" text-anchor="middle" text-align="center" dominant-baseline="central" font-weight="400" font-style="normal"  style="fill:rgb(118,118,118); fill-opacity:1; stroke:rgb(118,118,118); stroke-opacity:0; stroke-width:0.5"> 66</text>
<text x="1223.076923" y="898.000000" font-family="Atkinson Hyperlegible" font-size="14.000000pt" text-anchor="middle" text-align="center" dominant-baseline="central" font-weight="400" font-style="normal"  style="fill:rgb(118,118,118); fill-opacity:1; stroke:rgb(118,118,118); stroke-opacity:0; stroke-width:0.5"> 71</text>
<text x="1296.153846" y="898.000000" font-family="Atkinson Hyperlegible" font-size="14.000000pt" text-anchor="middle" text-align="center" dominant-baseline="central" font-weight="400" font-style="normal"  style="fill:rgb(118,118,118); fill-opacity:1; stroke:rgb(118,118,118); stroke-opacity:0; stroke-width:0.5"> 76</text>
<text x="1369.230769" y="898.000000" font-family="Atkinson Hyperlegible" font-size="14.000000pt" text-anchor="middle" text-align="center" dominant-baseline="central" font-weight="400" font-style="normal"  style="fill:rgb(118,118,118); fill-opacity:1; stroke:rgb(118,118,118); stroke-opacity:0; stroke-width:0.5"> 81</text>
<text x="1442.307692" y="898.000000" font-family="Atkinson Hyperlegible" font-size="14.000000pt" text-anchor="middle" text-align="center" dominant-baseline="central" font-weight="400" font-style="normal"  style="fill:rgb(118,118,118); fill-opacity:1; stroke:rgb(118,118,118); stroke-opacity:0; stroke-width:0.5"> 86</text>
<text x="1515.384615" y="898.000000" font-family="Atkinson Hyperlegible" font-size="14.000000pt" text-anchor="middle" text-align="center" dominant-baseline="central" font-weight="400" font-style="normal"  style="fill:rgb(118,118,118); fill-opacity:1; stroke:rgb(118,118,118); stroke-opacity:0; stroke-width:0.5"> 91</text>
<text x="1588.461538" y="898.000000" font-family="Atkinson Hyperlegible" font-size="14.000000pt" text-anchor="middle" text-align="center" dominant-baseline="central" font-weight="400" font-style="normal"  style="fill:rgb(118,118,118); fill-opacity:1; stroke:rgb(118,118,118); stroke-opacity:0; stroke-width:0.5"> 96</text>
<text x="1661.538462" y="898.000000" font-family="Atkinson Hyperlegible" font-size="14.000000pt" text-anchor="middle" text-align="center" dominant-baseline="central" font-weight="400" font-style="normal"  style="fill:rgb(118,118,118); fill-opacity:1; stroke:rgb(118,118,118); stroke-opacity:0; stroke-width:0.5"> 101</text>
 </g>
 <g id="tic-y-labels">
<text x="164.000000" y="826.047254" font-family="Atkinson Hyperlegible" font-size="14.000000pt" text-anchor="middle" text-align="center" dominant-baseline="central" font-weight="400" font-style="normal"  style="fill:rgb(118,118,118); fill-opacity:1; stroke:rgb(118,118,118); stroke-opacity:0; stroke-width:0.5"> 9k</text>
<text x="1756.000000" y="826.047254" font-family="Atkinson Hyperlegible" font-size="14.000000pt" text-anchor="middle" text-align="center" dominant-baseline="central" font-weight="400" font-style="normal"  style="fill:rgb(118,118,118); fill-opacity:1; stroke:rgb(118,118,118); stroke-opacity:0; stroke-width:0.5"> 9k</text>
<text x="164.000000" y="758.047254" font-family="Atkinson Hyperlegible" font-size="14.000000pt" text-anchor="middle" text-align="center" dominant-baseline="central" font-weight="400" font-style="normal"  style="fill:rgb(118,118,118); fill-opacity:1; stroke:rgb(118,118,118); stroke-opacity:0; stroke-width:0.5"> 20k</text>
<text x="1756.000000" y="758.047254" font-family="Atkinson Hyperlegible" font-size="14.000000pt" text-anchor="middle" text-align="center" dominant-baseline="central" font-weight="400" font-style="normal"  style="fill:rgb(118,118,118); fill-opacity:1; stroke:rgb(118,118,118); stroke-opacity:0; stroke-width:0.5"> 20k</text>
<text x="164.000000" y="690.047254" font-family="Atkinson Hyperlegible" font-size="14.000000pt" text-anchor="middle" text-align="center" dominant-baseline="central" font-weight="400" font-style="normal"  style="fill:rgb(118,118,118); fill-opacity:1; stroke:rgb(118,118,118); stroke-opacity:0; stroke-width:0.5"> 31k</text>
<text x="1756.000000" y="690.047254" font-family="Atkinson Hyperlegible" font-size="14.000000pt" text-anchor="middle" text-align="center" dominant-baseline="central" font-weight="400" font-style="normal"  style="fill:rgb(118,118,118); fill-opacity:1; stroke:rgb(118,118,118); stroke-opacity:0; stroke-width:0.5"> 31k</text>
<text x="164.000000" y="622.047254" font-family="Atkinson Hyperlegible" font-size="14.000000pt" text-anchor="middle" text-align="center" dominant-baseline="central" font-weight="400" font-style="normal"  style="fill:rgb(118,118,118); fill-opacity:1; stroke:rgb(118,118,118); stroke-opacity:0; stroke-width:0.5"> 43k</text>
<text x="1756.000000" y="622.047254" font-family="Atkinson Hyperlegible" font-size="14.000000pt" text-anchor="middle" text-align="center" dominant-baseline="central" font-weight="400" font-style="normal"  style="fill:rgb(118,118,118); fill-opacity:1; stroke:rgb(118,118,118); stroke-opacity:0; stroke-width:0.5"> 43k</text>
<text x="164.000000" y="554.047254" font-family="Atkinson Hyperlegible" font-size="14.000000pt" text-anchor="middle" text-align="center" dominant-baseline="central" font-weight="400" font-style="normal"  style="fill:rgb(118,118,118); fill-opacity:1; stroke:rgb(118,118,118); stroke-opacity:0; stroke-width:0.5"> 54k</text>
<text x="1756.000000" y="554.047254" font-family="Atkinson Hyperlegible" font-size="14.000000pt" text-anchor="middle" text-align="center" dominant-baseline="central" font-weight="400" font-style="normal"  style="fill:rgb(118,118,118); fill-opacity:1; stroke:rgb(118,118,118); stroke-opacity:0; stroke-width:0.5"> 54k</text>
<text x="164.000000" y="486.047254" font-family="Atkinson Hyperlegible" font-size="14.000000pt" text-anchor="middle" text-align="center" dominant-baseline="central" font-weight="400" font-style="normal"  style="fill:rgb(118,118,118); fill-opacity:1; stroke:rgb(118,118,118); stroke-opacity:0; stroke-width:0.5"> 65k</text>
<text x="1756.000000" y="486.047254" font-family="Atkinson Hyperlegible" font-size="14.000000pt" text-anchor="middle" text-align="center" dominant-baseline="central" font-weight="400" font-style="normal"  style="fill:rgb(118,118,118); fill-opacity:1; stroke:rgb(118,118,118); stroke-opacity:0; stroke-width:0.5"> 65k</text>
<text x="164.000000" y="418.047254" font-family="Atkinson Hyperlegible" font-size="14.000000pt" text-anchor="middle" text-align="center" dominant-baseline="central" font-weight="400" font-style="normal"  style="fill:rgb(118,118,118); fill-opacity:1; stroke:rgb(118,118,118); stroke-opacity:0; stroke-width:0.5"> 77k</text>
<text x="1756.000000" y="418.047254" font-family="Atkinson Hyperlegible" font-size="14.000000pt" text-anchor="middle" text-align="center" dominant-baseline="central" font-weight="400" font-style="normal"  style="fill:rgb(118,118,118); fill-opacity:1; stroke:rgb(118,118,118); stroke-opacity:0; stroke-width:0.5"> 77k</text>
<text x="164.000000" y="350.047254" font-family="Atkinson Hyperlegible" font-size="14.000000pt" text-anchor="middle" text-align="center" dominant-baseline="central" font-weight="400" font-style="normal"  style="fill:rgb(118,118,118); fill-opacity:1; stroke:rgb(118,118,118); stroke-opacity:0; stroke-width:0.5"> 88k</text>
<text x="1756.000000" y="350.047254" font-family="Atkinson Hyperlegible" font-size="14.000000pt" text-anchor="middle" text-align="center" dominant-baseline="central" font-weight="400" font-style="normal"  style="fill:rgb(118,118,118); fill-opacity:1; stroke:rgb(118,118,118); stroke-opacity:0; stroke-width:0.5"> 88k</text>
<text x="164.000000" y="282.047254" font-family="Atkinson Hyperlegible" font-size="14.000000pt" text-anchor="middle" text-align="center" dominant-baseline="central" font-weight="400" font-style="normal"  style="fill:rgb(118,118,118); fill-opacity:1; stroke:rgb(118,118,118); stroke-opacity:0; stroke-width:0.5"> 99k</text>
<text x="1756.000000" y="282.047254" font-family="Atkinson Hyperlegible" font-size="14.000000pt" text-anchor="middle" text-align="center" dominant-baseline="central" font-weight="400" font-style="normal"  style="fill:rgb(118,118,118); fill-opacity:1; stroke:rgb(118,118,118); stroke-opacity:0; stroke-width:0.5"> 99k</text>
<text x="164.000000" y="214.047254" font-family="Atkinson Hyperlegible" font-size="14.000000pt" text-anchor="middle" text-align="center" dominant-baseline="central" font-weight="400" font-style="normal"  style="fill:rgb(118,118,118); fill-opacity:1; stroke:rgb(118,118,118); stroke-opacity:0; stroke-width:0.5"> 110k</text>
<text x="1756.000000" y="214.047254" font-family="Atkinson Hyperlegible" font-size="14.000000pt" text-anchor="middle" text-align="center" dominant-baseline="central" font-weight="400" font-style="normal"  style="fill:rgb(118,118,118); fill-opacity:1; stroke:rgb(118,118,118); stroke-opacity:0; stroke-width:0.5"> 110k</text>
<text x="164.000000" y="146.047254" font-family="Atkinson Hyperlegible" font-size="14.000000pt" text-anchor="middle" text-align="center" dominant-baseline="central" font-weight="400" font-style="normal"  style="fill:rgb(118,118,118); fill-opacity:1; stroke:rgb(118,118,118); stroke-opacity:0; stroke-width:0.5"> 122k</text>
<text x="1756.000000" y="146.047254" font-family="Atkinson Hyperlegible" font-size="14.000000pt" text-anchor="middle" text-align="center" dominant-baseline="central" font-weight="400" font-style="normal"  style="fill:rgb(118,118,118); fill-opacity:1; stroke:rgb(118,118,118); stroke-opacity:0; stroke-width:0.5"> 122k</text>
 </g>
 </g>
 <g id="weekend-bands-bridgerton-02 downloads by day">
<rect x="200.000000" y="200.000000" width="29.230769" height="680.000000"
 style="fill:rgb(148,148,148); fill-opacity:0.15; stroke:rgb(148,148,148); stroke-opacity:0; stroke-width:0" />
<rect x="302.307692" y="200.000000" width="29.230769" height="680.000000"
 style="fill:rgb(148,148,148); fill-opacity:0.15; stroke:rgb(148,148,148); stroke-opacity:0; stroke-width:0" />
<rect x="404.615385" y="200.000000" width="29.230769" height="680.000000"
 style="fill:rgb(148,148,148); fill-opacity:0.15; stroke:rgb(148,148,148); stroke-opacity:0; stroke-width:0" />
<rect x="506.923077" y="200.000000" width="29.230769" height="680.000000"
 style="fill:rgb(148,148,148); fill-opacity:0.15; stroke:rgb(148,148,148); stroke-opacity:0; stroke-width:0" />
<rect x="609.230769" y="200.000000" width="29.230769" height="680.000000"
 style="fill:rgb(148,148,148); fill-opacity:0.15; stroke:rgb(148,148,148); stroke-opacity:0; stroke-width:0" />
<rect x="711.538462" y="200.000000" width="29.230769" height="680.000000"
 style="fill:rgb(148,148,148); fill-opacity:0.15; stroke:rgb(148,148,148); stroke-opacity:0; stroke-width:0" />
<rect x="813.846154" y="200.000000" width="29.230769" height="680.000000"
 style="fill:rgb(148,148,148); fill-opacity:0.15; stroke:rgb(148,148,148); stroke-opacity:0; stroke-width:0" />
<rect x="916.153846" y="200.000000" width="29.230769" height="680.000000"
 style="fill:rgb(148,148,148); fill-opacity:0.15; stroke:rgb(148,148,148); stroke-opacity:0; stroke-width:0" />
<rect x="1018.461538" y="200.000000" width="29.230769" height="680.000000"
 style="fill:rgb(148,148,148); fill-opacity:0.15; stroke:rgb(148,148,148); stroke-opacity:0; stroke-width:0" />
<rect x="1120.769231" y="200.000000" width="29.230769" height="680.000000"
 style="fill:rgb(148,148,148); fill-opacity:0.15; stroke:rgb(148,148,148); stroke-opacity:0; stroke-width:0" />
<rect x="1223.076923" y="200.000000" width="29.230769" height="680.000000"
 style="fill:rgb(148,148,148); fill-opacity:0.15; stroke:rgb(148,148,148); stroke-opacity:0; stroke-width:0" />
<rect x="1325.384615" y="200.000000" width="29.230769" height="680.000000"
 style="fill:rgb(148,148,148); fill-opacity:0.15; stroke:rgb(148,148,148); stroke-opacity:0; stroke-width:0" />
<rect x="1427.692308" y="200.000000" width="29.230769" height="680.000000"
 style="fill:rgb(148,148,148); fill-opacity:0.15; stroke:rgb(148,148,148); stroke-opacity:0; stroke-width:0" />
<rect x="1530.000000" y="200.000000" width="29.230769" height="680.000000"
 style="fill:rgb(148,148,148); fill-opacity:0.15; stroke:rgb(148,148,148); stroke-opacity:0; stroke-width:0" />
<rect x="1632.307692" y="200.000000" width="29.230769" height="680.000000"
 style="fill:rgb(148,148,148); fill-opacity:0.15; stroke:rgb(148,148,148); stroke-opacity:0; stroke-width:0" />
 </g>
 <g id="polyline-bridgerton-02 downloads by day">
<polyline points="200,536.231 214.615,200 229.231,295.427 243.846,266.732 258.462,333.766 273.077,289.463 287.692,328.013 302.308,312.368 316.923,363.354 331.538,375.772 346.154,382.792 360.769,417.886 375.385,450.272 390,424.538 404.615,434.929 419.231,403.743 433.846,437.625 448.462,456.677 463.077,426.92 477.692,479.148 492.308,470.433 506.923,467.526 521.538,497.494 536.154,511.552 550.769,510.666 565.385,531.352 580,565.077 594.615,544.457 609.231,528.131 623.846,543.317 638.462,519.634 653.077,556.844 667.692,548.612 682.308,568.719 696.923,542.684 711.538,587.289 726.154,592.119 740.769,546.646 755.385,566.379 770,596.142 784.615,588.633 799.231,571.433 813.846,586.384 828.462,580.051 843.077,585.98 857.692,576.909 872.308,619.458 886.923,602.848 901.538,629.511 916.154,614.476 930.769,632.352 945.385,601.606 960,595.334 974.615,631.363 989.231,619.705 1003.85,645.029 1018.46,643.334 1033.08,641.428 1047.69,626.713 1062.31,642.375 1076.92,614.078 1091.54,624.988 1106.15,631.26 1120.77,653.532 1135.38,664.177 1150,636.127 1164.62,635.241 1179.23,648.207 1193.85,647.863 1208.46,629.963 1223.08,639.348 1237.69,656.819 1252.31,646.573 1266.92,637.81 1281.54,666.107 1296.15,663.996 1310.77,653.936 1325.38,663.043 1340,657.73 1354.62,661.626 1369.23,687.33 1383.85,651.814 1398.46,645.837 1413.08,651.259 1427.69,660.209 1442.31,677.572 1456.92,658.025 1471.54,658.876 1486.15,651.301 1500.77,651.669 1515.38,691.811 1530,662.88 1544.62,677.18 1559.23,679.152 1573.85,696.304 1588.46,683.5 1603.08,675.002 1617.69,691.877 1632.31,658.104 1646.92,674.411 1661.54,681.425 1676.15,670.648 1690.77,702.606 1705.38,704.482 1720,669.122 "  style="fill:rgb(0,0,255); fill-opacity:0; stroke:rgb(0,0,255); stroke-opacity:1; stroke-width:4" />
 </g>
 <g id="polyline-bridgerton-02 downloads by day uploaders">
<polyline points="200,764.972 214.615,572.585 229.231,618.046 243.846,630.313 258.462,666.595 273.077,673.597 287.692,685.388 302.308,689.32 316.923,701.925 331.538,703.384 346.154,715.313 360.769,732.646 375.385,737.362 390,736.108 404.615,737.411 419.231,736.156 433.846,741.59 448.462,748.881 463.077,762.765 477.692,767.674 492.308,772.885 506.923,773.584 521.538,788.203 536.154,789.349 550.769,789.017 565.385,792.147 580,791.49 594.615,795.332 609.231,798.335 623.846,802.695 638.462,804.197 653.077,805.072 667.692,811.181 682.308,811.887 696.923,814.522 711.538,817.393 726.154,820.945 740.769,823.575 755.385,819.347 770,823.243 784.615,822.754 799.231,825.504 813.846,826.789 828.462,833.791 843.077,834.967 857.692,832.512 872.308,835.504 886.923,835.95 901.538,836.451 916.154,837.934 930.769,841.951 945.385,841.517 960,837.802 974.615,839.569 989.231,841.8 1003.85,841.74 1018.46,845.401 1033.08,848.072 1047.69,846.673 1062.31,845.015 1076.92,847.053 1091.54,851.13 1106.15,852.372 1120.77,852.776 1135.38,855.436 1150,855.713 1164.62,855.683 1179.23,856.889 1193.85,855.78 1208.46,854.489 1223.08,858.608 1237.69,862.112 1252.31,862.522 1266.92,858.566 1281.54,861.515 1296.15,860.99 1310.77,859.615 1325.38,862.945 1340,863.113 1354.62,862.788 1369.23,863.566 1383.85,862.516 1398.46,863.897 1413.08,866.738 1427.69,866.153 1442.31,867.588 1456.92,867.95 1471.54,868.535 1486.15,867.938 1500.77,867.661 1515.38,868.396 1530,870.043 1544.62,872.28 1559.23,872.703 1573.85,871.707 1588.46,873.577 1603.08,875.061 1617.69,875 1632.31,876.321 1646.92,876.176 1661.54,877.69 1676.15,876.122 1690.77,878.275 1705.38,878.305 1720,880 " stroke-dasharray="5 15"  style="fill:rgb(0,0,255); fill-opacity:0; stroke:rgb(0,0,255); stroke-opacity:1; stroke-width:4" />
 </g>
</svg>
