<svg xml:space="preserve"
     xmlns="http://www.w3.org/2000/svg"
     xmlns:xlink="http://www.w3.org/1999/xlink"
     xmlns:html="http://www.w3.org/1999/xhtml"
id="house-of-the-dragon-103-downloads-by-day-day" x="0px" y="0px"
width="1920.000000px" height="1080.000000px"
viewBox="0 0 1920.000000 1080.000000" enable-background="new 0 0 1920.000000 1080.000000" role="img">
<title>
house-of-the-dragon-103-downloads-by-day-day
</title>
<desc>
Daily series for house-of-the-dragon-103: upeers_total solid, useeds_total dashed.
</desc>
<title>
house-of-the-dragon-103-downloads-by-day-day
</title>
 <g id="annotations">
<text x="960.000000" y="126.000000" font-family="Atkinson Hyperlegible" font-size="26.000000pt" text-anchor="middle" text-align="center" font-weight="600" font-style="normal"  style="fill:rgb(118,118,118); fill-opacity:1; stroke:rgb(118,118,118); stroke-opacity:0; stroke-width:0.5"> house-of-the-dragon-103 downloads by day</text>
 <g id="axes-lines">
<text x="960.000000" y="1007.000000" font-family="Atkinson Hyperlegible" font-size="18.000000pt" text-anchor="middle" text-align="center" font-weight="500" font-style="normal"  style="fill:rgb(118,118,118); fill-opacity:1; stroke:rgb(118,118,118); stroke-opacity:0; stroke-width:0.5"> DAY</text>
<text x="73.000000" y="540.000000" font-family="Atkinson Hyperlegible" font-size="18.000000pt" text-anchor="middle" text-align="center" dominant-baseline="central" font-weight="500" font-style="normal"  style="fill:rgb(118,118,118); fill-opacity:1; stroke:rgb(118,118,118); stroke-opacity:0; stroke-width:0.5" transform="rotate(-90,73,540)"> DOWNLOADERS</text>
 </g>
 <g id="tic-y-label-lines">
<line x1="218.000000" y1="782.494921" x2="1702.000000" y2="782.494921" style="fill:rgb(0,0,255); fill-opacity:0; stroke:rgb(242,242,242); stroke-opacity:1; stroke-width:4" />
<line x1="218.000000" y1="714.494921" x2="1702.000000" y2="714.494921" style="fill:rgb(0,0,255); fill-opacity:0; stroke:rgb(242,242,242); stroke-opacity:1; stroke-width:4" />
<line x1="218.000000" y1="646.494921" x2="1702.000000" y2="646.494921" style="fill:rgb(0,0,255); fill-opacity:0; stroke:rgb(242,242,242); stroke-opacity:1; stroke-width:4" />
<line x1="218.000000" y1="578.494921" x2="1702.000000" y2="578.494921" style="fill:rgb(0,0,255); fill-opacity:0; stroke:rgb(242,242,242); stroke-opacity:1; stroke-width:4" />
<line x1="218.000000" y1="510.494921" x2="1702.000000" y2="510.494921" style="fill:rgb(0,0,255); fill-opacity:0; stroke:rgb(242,242,242); stroke-opacity:1; stroke-width:4" />
<line x1="218.000000" y1="442.494921" x2="1702.000000" y2="442.494921" style="fill:rgb(0,0,255); fill-opacity:0; stroke:rgb(242,242,242); stroke-opacity:1; stroke-width:4" />
<line x1="218.000000" y1="374.494921" x2="1702.000000" y2="374.494921" style="fill:rgb(0,0,255); fill-opacity:0; stroke:rgb(242,242,242); stroke-opacity:1; stroke-width:4" />
<line x1="218.000000" y1="306.494921" x2="1702.000000" y2="306.494921" style="fill:rgb(0,0,255); fill-opacity:0; stroke:rgb(242,242,242); stroke-opacity:1; stroke-width:4" />
<line x1="218.000000" y1="238.494921" x2="1702.000000" y2="238.494921" style="fill:rgb(0,0,255); fill-opacity:0; stroke:rgb(242,242,242); stroke-opacity:1; stroke-width:4" />
<line x1="218.000000" y1="170.494921" x2="1702.000000" y2="170.494921" style="fill:rgb(0,0,255); fill-opacity:0; stroke:rgb(242,242,242); stroke-opacity:1; stroke-width:4" />
 </g>
 <g id="tic-x-labels">
<text x="200.000000" y="898.000000" font-family="Atkinson Hyperlegible" font-size="14.000000pt" text-anchor="middle" text-align="center" dominant-baseline="central" font-weight="400" font-style="normal"  style="fill:rgb(118,118,118); fill-opacity:1; stroke:rgb(118,118,118); stroke-opacity:0; stroke-width:0.5"> 1</text>
<text x="268.468468" y="898.000000" font-family="Atkinson Hyperlegible" font-size="14.000000pt" text-anchor="middle" text-align="center" dominant-baseline="central" font-weight="400" font-style="normal"  style="fill:rgb(118,118,118); fill-opacity:1; stroke:rgb(118,118,118); stroke-opacity:0; stroke-width:0.5"> 6</text>
<text x="336.936937" y="898.000000" font-family="Atkinson Hyperlegible" font-size="14.000000pt" text-anchor="middle" text-align="center" dominant-baseline="central" font-weight="400" font-style="normal"  style="fill:rgb(118,118,118); fill-opacity:1; stroke:rgb(118,118,118); stroke-opacity:0; stroke-width:0.5"> 11</text>
<text x="405.405405" y="898.000000" font-family="Atkinson Hyperlegible" font-size="14.000000pt" text-anchor="middle" text-align="center" dominant-baseline="central" font-weight="400" font-style="normal"  style="fill:rgb(118,118,118); fill-opacity:1; stroke:rgb(118,118,118); stroke-opacity:0; stroke-width:0.5"> 16</text>
<text x="473.873874" y="898.000000" font-family="Atkinson Hyperlegible" font-size="14.000000pt" text-anchor="middle" text-align="center" dominant-baseline="central" font-weight="400" font-style="normal"  style="fill:rgb(118,118,118); fill-opacity:1; stroke:rgb(118,118,118); stroke-opacity:0; stroke-width:0.5"> 21</text>
<text x="542.342342" y="898.000000" font-family="Atkinson Hyperlegible" font-size="14.000000pt" text-anchor="middle" text-align="center" dominant-baseline="central" font-weight="400" font-style="normal"  style="fill:rgb(118,118,118); fill-opacity:1; stroke:rgb(118,118,118); stroke-opacity:0; stroke-width:0.5"> 26</text>
<text x="610.810811" y="898.000000" font-family="Atkinson Hyperlegible" font-size="14.000000pt" text-anchor="middle" text-align="center" dominant-baseline="central" font-weight="400" font-style="normal"  style="fill:rgb(118,118,118); fill-opacity:1; stroke:rgb(118,118,118); stroke-opacity:0; stroke-width:0.5"> 31</text>
<text x="679.279279" y="898.000000" font-family="Atkinson Hyperlegible" font-size="14.000000pt" text-anchor="middle" text-align="center" dominant-baseline="central" font-weight="400" font-style="normal"  style="fill:rgb(118,118,118); fill-opacity:1; stroke:rgb(118,118,118); stroke-opacity:0; stroke-width:0.5"> 36</text>
<text x="747.747748" y="898.000000" font-family="Atkinson Hyperlegible" font-size="14.000000pt" text-anchor="middle" text-align="center" dominant-baseline="central" font-weight="400" font-style="normal"  style="fill:rgb(118,118,118); fill-opacity:1; stroke:rgb(118,118,118); stroke-opacity:0; stroke-width:0.5"> 41</text>
<text x="816.216216" y="898.000000" font-family="Atkinson Hyperlegible" font-size="14.000000pt" text-anchor="middle" text-align="center" dominant-baseline="central" font-weight="400" font-style="normal"  style="fill:rgb(118,118,118); fill-opacity:1; stroke:rgb(118,118,118); stroke-opacity:0; stroke-width:0.5"> 46</text>
<text x="884.684685" y="898.000000" font-family="Atkinson Hyperlegible" font-size="14.000000pt" text-anchor="middle" text-align="center" dominant-baseline="central" font-weight="400" font-style="normal"  style="fill:rgb(118,118,118); fill-opacity:1; stroke:rgb(118,118,118); stroke-opacity:0; stroke-width:0.5"> 51</text>
<text x="953.153153" y="898.000000" font-family="Atkinson Hyperlegible" font-size="14.000000pt" text-anchor="middle" text-align="center" dominant-baseline="central" font-weight="400" font-style="normal"  style="fill:rgb(118,118,118); fill-opacity:1; stroke:rgb(118,118,118); stroke-opacity:0; stroke-width:0.5"> 56</text>
<text x="1021.621622" y="898.000000" font-family="Atkinson Hyperlegible" font-size="14.000000pt" text-anchor="middle" text-align="center" dominant-baseline="central" font-weight="400" font-style="normal"  style="fill:rgb(118,118,118); fill-opacity:1; stroke:rgb(118,118,118); stroke-opacity:0; stroke-width:0.5"> 61</text>
<text x="1090.090090" y="898.000000" font-family="Atkinson Hyperlegible" font-size="14.000000pt" text-anchor="middle" text-align="center" dominant-baseline="central" font-weight="400" font-style="normal"  style="fill:rgb(118,118,118); fill-opacity:1; stroke:rgb(118,118,118); stroke-opacity:0; stroke-width:0.5"> 66</text>
<text x="1158.558559" y="898.000000" font-family="Atkinson Hyperlegible" font-size="14.000000pt" text-anchor="middle" text-align="center" dominant-baseline="central" font-weight="400" font-style="normal"  style="fill:rgb(118,118,118); fill-opacity:1; stroke:rgb(118,118,118); stroke-opacity:0; stroke-width:0.5"> 71</text>
<text x="1227.027027" y="898.000000" font-family="Atkinson Hyperlegible" font-size="14.000000pt" text-anchor="middle" text-align="center" dominant-baseline="central" font-weight="400" font-style="normal"  style="fill:rgb(118,118,118); fill-opacity:1; stroke:rgb(118,118,118); stroke-opacity:0; stroke-width:0.5"> 76</text>
<text x="1295.495495" y="898.000000" font-family="Atkinson Hyperlegible" font-size="14.000000pt" text-anchor="middle" text-align="center" dominant-baseline="central" font-weight="400" font-style="normal"  style="fill:rgb(118,118,118); fill-opacity:1; stroke:rgb(118,118,118); stroke-opacity:0; stroke-width:0.5"> 81</text>
<text x="1363.963964" y="898.000000" font-family="Atkinson Hyperlegible" font-size="14.000000pt" text-anchor="middle" text-align="center" dominant-baseline="central" font-weight="400" font-style="normal"  style="fill:rgb(118,118,118); fill-opacity:1; stroke:rgb(118,118,118); stroke-opacity:0; stroke-width:0.5"> 86</text>
<text x="1432.432432" y="898.000000" font-family="Atkinson Hyperlegible" font-size="14.000000pt" text-anchor="middle" text-align="center" dominant-baseline="central" font-weight="400" font-style="normal"  style="fill:rgb(118,118,118); fill-opacity:1; stroke:rgb(118,118,118); stroke-opacity:0; stroke-width:0.5"> 91</text>
<text x="1500.900901" y="898.000000" font-family="Atkinson Hyperlegible" font-size="14.000000pt" text-anchor="middle" text-align="center" dominant-baseline="central" font-weight="400" font-style="normal"  style="fill:rgb(118,118,118); fill-opacity:1; stroke:rgb(118,118,118); stroke-opacity:0; stroke-width:0.5"> 96</text>
<text x="1569.369369" y="898.000000" font-family="Atkinson Hyperlegible" font-size="14.000000pt" text-anchor="middle" text-align="center" dominant-baseline="central" font-weight="400" font-style="normal"  style="fill:rgb(118,118,118); fill-opacity:1; stroke:rgb(118,118,118); stroke-opacity:0; stroke-width:0.5"> 101</text>
<text x="1637.837838" y="898.000000" font-family="Atkinson Hyperlegible" font-size="14.000000pt" text-anchor="middle" text-align="center" dominant-baseline="central" font-weight="400" font-style="normal"  style="fill:rgb(118,118,118); fill-opacity:1; stroke:rgb(118,118,118); stroke-opacity:0; stroke-width:0.5"> 106</text>
<text x="1706.306306" y="898.000000" font-family="Atkinson Hyperlegible" font-size="14.000000pt" text-anchor="middle" text-align="center" dominant-baseline="central" font-weight="400" font-style="normal"  style="fill:rgb(118,118,118); fill-opacity:1; stroke:rgb(118,118,118); stroke-opacity:0; stroke-width:0.5"> 111</text>
 </g>
 <g id="tic-y-labels">
<text x="164.000000" y="852.494921" font-family="Atkinson Hyperlegible" font-size="14.000000pt" text-anchor="middle" text-align="center" dominant-baseline="central" font-weight="400" font-style="normal"  style="fill:rgb(118,118,118); fill-opacity:1; stroke:rgb(118,118,118); stroke-opacity:0; stroke-width:0.5"> 31k</text>
<text x="1756.000000" y="852.494921" font-family="Atkinson Hyperlegible" font-size="14.000000pt" text-anchor="middle" text-align="center" dominant-baseline="central" font-weight="400" font-style="normal"  style="fill:rgb(118,118,118); fill-opacity:1; stroke:rgb(118,118,118); stroke-opacity:0; stroke-width:0.5"> 31k</text>
<text x="164.000000" y="784.494921" font-family="Atkinson Hyperlegible" font-size="14.000000pt" text-anchor="middle" text-align="center" dominant-baseline="central" font-weight="400" font-style="normal"  style="fill:rgb(118,118,118); fill-opacity:1; stroke:rgb(118,118,118); stroke-opacity:0; stroke-width:0.5"> 107k</text>
<text x="1756.000000" y="784.494921" font-family="Atkinson Hyperlegible" font-size="14.000000pt" text-anchor="middle" text-align="center" dominant-baseline="central" font-weight="400" font-style="normal"  style="fill:rgb(118,118,118); fill-opacity:1; stroke:rgb(118,118,118); stroke-opacity:0; stroke-width:0.5"> 107k</text>
<text x="164.000000" y="716.494921" font-family="Atkinson Hyperlegible" font-size="14.000000pt" text-anchor="middle" text-align="center" dominant-baseline="central" font-weight="400" font-style="normal"  style="fill:rgb(118,118,118); fill-opacity:1; stroke:rgb(118,118,118); stroke-opacity:0; stroke-width:0.5"> 183k</text>
<text x="1756.000000" y="716.494921" font-family="Atkinson Hyperlegible" font-size="14.000000pt" text-anchor="middle" text-align="center" dominant-baseline="central" font-weight="400" font-style="normal"  style="fill:rgb(118,118,118); fill-opacity:1; stroke:rgb(118,118,118); stroke-opacity:0; stroke-width:0.5"> 183k</text>
<text x="164.000000" y="648.494921" font-family="Atkinson Hyperlegible" font-size="14.000000pt" text-anchor="middle" text-align="center" dominant-baseline="central" font-weight="400" font-style="normal"  style="fill:rgb(118,118,118); fill-opacity:1; stroke:rgb(118,118,118); stroke-opacity:0; stroke-width:0.5"> 259k</text>
<text x="1756.000000" y="648.494921" font-family="Atkinson Hyperlegible" font-size="14.000000pt" text-anchor="middle" text-align="center" dominant-baseline="central" font-weight="400" font-style="normal"  style="fill:rgb(118,118,118); fill-opacity:1; stroke:rgb(118,118,118); stroke-opacity:0; stroke-width:0.5"> 259k</text>
<text x="164.000000" y="580.494921" font-family="Atkinson Hyperlegible" font-size="14.000000pt" text-anchor="middle" text-align="center" dominant-baseline="central" font-weight="400" font-style="normal"  style="fill:rgb(118,118,118); fill-opacity:1; stroke:rgb(118,118,118); stroke-opacity:0; stroke-width:0.5"> 335k</text>
<text x="1756.000000" y="580.494921" font-family="Atkinson Hyperlegible" font-size="14.000000pt" text-anchor="middle" text-align="center" dominant-baseline="central" font-weight="400" font-style="normal"  style="fill:rgb(118,118,118); fill-opacity:1; stroke:rgb(118,118,118); stroke-opacity:0; stroke-width:0.5"> 335k</text>
<text x="164.000000" y="512.494921" font-family="Atkinson Hyperlegible" font-size="14.000000pt" text-anchor="middle" text-align="center" dominant-baseline="central" font-weight="400" font-style="normal"  style="fill:rgb(118,118,118); fill-opacity:1; stroke:rgb(118,118,118); stroke-opacity:0; stroke-width:0.5"> 411k</text>
<text x="1756.000000" y="512.494921" font-family="Atkinson Hyperlegible" font-size="14.000000pt" text-anchor="middle" text-align="center" dominant-baseline="central" font-weight="400" font-style="normal"  style="fill:rgb(118,118,118); fill-opacity:1; stroke:rgb(118,118,118); stroke-opacity:0; stroke-width:0.5"> 411k</text>
<text x="164.000000" y="444.494921" font-family="Atkinson Hyperlegible" font-size="14.000000pt" text-anchor="middle" text-align="center" dominant-baseline="central" font-weight="400" font-style="normal"  style="fill:rgb(118,118,118); fill-opacity:1; stroke:rgb(118,118,118); stroke-opacity:0; stroke-width:0.5"> 487k</text>
<text x="1756.000000" y="444.494921" font-family="Atkinson Hyperlegible" font-size="14.000000pt" text-anchor="middle" text-align="center" dominant-baseline="central" font-weight="400" font-style="normal"  style="fill:rgb(118,118,118); fill-opacity:1; stroke:rgb(118,118,118); stroke-opacity:0; stroke-width:0.5"> 487k</text>
<text x="164.000000" y="376.494921" font-family="Atkinson Hyperlegible" font-size="14.000000pt" text-anchor="middle" text-align="center" dominant-baseline="central" font-weight="400" font-style="normal"  style="fill:rgb(118,118,118); fill-opacity:1; stroke:rgb(118,118,118); stroke-opacity:0; stroke-width:0.5"> 563k</text>
<text x="1756.000000" y="376.494921" font-family="Atkinson Hyperlegible" font-size="14.000000pt" text-anchor="middle" text-align="center" dominant-baseline="central" font-weight="400" font-style="normal"  style="fill:rgb(118,118,118); fill-opacity:1; stroke:rgb(118,118,118); stroke-opacity:0; stroke-width:0.5"> 563k</text>
<text x="164.000000" y="308.494921" font-family="Atkinson Hyperlegible" font-size="14.000000pt" text-anchor="middle" text-align="center" dominant-baseline="central" font-weight="400" font-style="normal"  style="fill:rgb(118,118,118); fill-opacity:1; stroke:rgb(118,118,118); stroke-opacity:0; stroke-width:0.5"> 639k</text>
<text x="1756.000000" y="308.494921" font-family="Atkinson Hyperlegible" font-size="14.000000pt" text-anchor="middle" text-align="center" dominant-baseline="central" font-weight="400" font-style="normal"  style="fill:rgb(118,118,118); fill-opacity:1; stroke:rgb(118,118,118); stroke-opacity:0; stroke-width:0.5"> 639k</text>
<text x="164.000000" y="240.494921" font-family="Atkinson Hyperlegible" font-size="14.000000pt" text-anchor="middle" text-align="center" dominant-baseline="central" font-weight="400" font-style="normal"  style="fill:rgb(118,118,118); fill-opacity:1; stroke:rgb(118,118,118); stroke-opacity:0; stroke-width:0.5"> 715k</text>
<text x="1756.000000" y="240.494921" font-family="Atkinson Hyperlegible" font-size="14.000000pt" text-anchor="middle" text-align="center" dominant-baseline="central" font-weight="400" font-style="normal"  style="fill:rgb(118,118,118); fill-opacity:1; stroke:rgb(118,118,118); stroke-opacity:0; stroke-width:0.5"> 715k</text>
<text x="164.000000" y="172.494921" font-family="Atkinson Hyperlegible" font-size="14.000000pt" text-anchor="middle" text-align="center" dominant-baseline="central" font-weight="400" font-style="normal"  style="fill:rgb(118,118,118); fill-opacity:1; stroke:rgb(118,118,118); stroke-opacity:0; stroke-width:0.5"> 791k</text>
<text x="1756.000000" y="172.494921" font-family="Atkinson Hyperlegible" font-size="14.000000pt" text-anchor="middle" text-align="center" dominant-baseline="central" font-weight="400" font-style="normal"  style="fill:rgb(118,118,118); fill-opacity:1; stroke:rgb(118,118,118); stroke-opacity:0; stroke-width:0.5"> 791k</text>
 </g>
 </g>
 <g id="weekend-bands-house-of-the-dragon-103 downloads by day">
<rect x="254.774775" y="200.000000" width="27.387387" height="680.000000"
 style="fill:rgb(148,148,148); fill-opacity:0.15; stroke:rgb(148,148,148); stroke-opacity:0; stroke-width:0" />
<rect x="350.630631" y="200.000000" width="27.387387" height="680.000000"
 style="fill:rgb(148,148,148); fill-opacity:0.15; stroke:rgb(148,148,148); stroke-opacity:0; stroke-width:0" />
<rect x="446.486486" y="200.000000" width="27.387387" height="680.000000"
 style="fill:rgb(148,148,148); fill-opacity:0.15; stroke:rgb(148,148,148); stroke-opacity:0; stroke-width:0" />
<rect x="542.342342" y="200.000000" width="27.387387" height="680.000000"
 style="fill:rgb(148,148,148); fill-opacity:0.15; stroke:rgb(148,148,148); stroke-opacity:0; stroke-width:0" />
<rect x="638.198198" y="200.000000" width="27.387387" height="680.000000"
 style="fill:rgb(148,148,148); fill-opacity:0.15; stroke:rgb(148,148,148); stroke-opacity:0; stroke-width:0" />
<rect x="734.054054" y="200.000000" width="27.387387" height="680.000000"
 style="fill:rgb(148,148,148); fill-opacity:0.15; stroke:rgb(148,148,148); stroke-opacity:0; stroke-width:0" />
<rect x="829.909910" y="200.000000" width="27.387387" height="680.000000"
 style="fill:rgb(148,148,148); fill-opacity:0.15; stroke:rgb(148,148,148); stroke-opacity:0; stroke-width:0" />
<rect x="925.765766" y="200.000000" width="27.387387" height="680.000000"
 style="fill:rgb(148,148,148); fill-opacity:0.15; stroke:rgb(148,148,148); stroke-opacity:0; stroke-width:0" />
<rect x="1021.621622" y="200.000000" width="27.387387" height="680.000000"
 style="fill:rgb(148,148,148); fill-opacity:0.15; stroke:rgb(148,148,148); stroke-opacity:0; stroke-width:0" />
<rect x="1117.477477" y="200.000000" width="27.387387" height="680.000000"
 style="fill:rgb(148,148,148); fill-opacity:0.15; stroke:rgb(148,148,148); stroke-opacity:0; stroke-width:0" />
<rect x="1213.333333" y="200.000000" width="27.387387" height="680.000000"
 style="fill:rgb(148,148,148); fill-opacity:0.15; stroke:rgb(148,148,148); stroke-opacity:0; stroke-width:0" />
<rect x="1309.189189" y="200.000000" width="27.387387" height="680.000000"
 style="fill:rgb(148,148,148); fill-opacity:0.15; stroke:rgb(148,148,148); stroke-opacity:0; stroke-width:0" />
<rect x="1405.045045" y="200.000000" width="27.387387" height="680.000000"
 style="fill:rgb(148,148,148); fill-opacity:0.15; stroke:rgb(148,148,148); stroke-opacity:0; stroke-width:0" />
<rect x="1500.900901" y="200.000000" width="27.387387" height="680.000000"
 style="fill:rgb(148,148,148); fill-opacity:0.15; stroke:rgb(148,148,148); stroke-opacity:0; stroke-width:0" />
<rect x="1596.756757" y="200.000000" width="27.387387" height="680.000000"
 style="fill:rgb(148,148,148); fill-opacity:0.15; stroke:rgb(148,148,148); stroke-opacity:0; stroke-width:0" />
<rect x="1692.612613" y="200.000000" width="27.387387" height="680.000000"
 style="fill:rgb(148,148,148); fill-opacity:0.15; stroke:rgb(148,148,148); stroke-opacity:0; stroke-width:0" />
 </g>
 <g id="polyline-house-of-the-dragon-103 downloads by day">
<polyline points="200,237.197 213.694,200 227.387,298.088 241.081,394.72 254.775,429.639 268.468,455.483 282.162,464.968 295.856,404.955 309.55,505.007 323.243,564.665 336.937,598.266 350.631,611.322 364.324,619.105 378.018,625.233 391.712,584.642 405.405,624.494 419.099,669.07 432.793,664.413 446.486,668.974 460.18,674.899 473.874,675.291 487.568,642.774 501.261,666.853 514.955,691.159 528.649,703.551 542.342,708.284 556.036,708.852 569.73,707.107 583.423,679.501 597.117,699.296 610.811,713.437 624.505,722.902 638.198,724.246 651.892,732.29 665.586,724.682 679.279,703.326 692.973,718.732 706.667,723.787 720.36,735.72 734.054,734.731 747.748,733.992 761.441,735.058 775.135,711.332 788.829,725.075 802.523,737.157 816.216,743.763 829.91,744.19 843.604,738.212 857.297,733.269 870.991,719.551 884.685,729.664 898.378,741.276 912.072,748.014 925.766,753.152 939.459,758.773 953.153,756.085 966.847,758.927 980.541,763.443 994.234,765.696 1007.93,768.985 1021.62,772.57 1035.32,773.503 1049.01,779.468 1062.7,774.355 1076.4,779.82 1090.09,784.263 1103.78,789.093 1117.48,786.55 1131.17,786.357 1144.86,785.073 1158.56,786.858 1172.25,787.33 1185.95,790.489 1199.64,790.129 1213.33,794.051 1227.03,795.703 1240.72,797.038 1254.41,796.252 1268.11,796.449 1281.8,798.09 1295.5,801.85 1309.19,803.809 1322.88,805.05 1336.58,803.584 1350.27,801.498 1363.96,803.123 1377.66,806.218 1391.35,807.828 1405.05,807.963 1418.74,808.278 1432.43,810.297 1446.13,804.385 1459.82,806.757 1473.51,813.02 1487.21,813.7 1500.9,815.386 1514.59,818.968 1528.29,816.266 1541.98,816.617 1555.68,815.205 1569.37,814.876 1583.06,818.566 1596.76,816.071 1610.45,817.181 1624.14,819.922 1637.84,823.101 1651.53,819.941 1665.23,827.995 1678.92,828.022 1692.61,823.876 1706.31,828.135 1720,828.563 "  style="fill:rgb(0,0,255); fill-opacity:0; stroke:rgb(0,0,255); stroke-opacity:1; stroke-width:4" />
 </g>
 <g id="polyline-house-of-the-dragon-103 downloads by day uploaders">
<polyline points="200,725.832 213.694,658.784 227.387,675.258 241.081,702.058 254.775,711.567 268.468,717.255 282.162,724.118 295.856,710.441 309.55,745.674 323.243,769.589 336.937,781.963 350.631,783.735 364.324,781.772 378.018,780.899 391.712,761.171 405.405,785.908 419.099,806.172 432.793,804.66 446.486,805.401 460.18,803.98 473.874,804.339 487.568,790.814 501.261,803.017 514.955,815.671 528.649,821.93 542.342,822.137 556.036,822.279 569.73,818.517 583.423,806.847 597.117,817.772 610.811,824.494 624.505,826.815 638.198,828.523 651.892,830.117 665.586,829.607 679.279,820.199 692.973,828.73 706.667,831.707 720.36,835.046 734.054,834.637 747.748,834.632 761.441,833.866 775.135,825.545 788.829,830.571 802.523,835.613 816.216,838.667 829.91,837.927 843.604,835.69 857.297,834.709 870.991,829.669 884.685,834.468 898.378,839.098 912.072,842.186 925.766,840.907 939.459,841.571 953.153,841.094 966.847,844.373 980.541,845.852 994.234,846.787 1007.93,849.098 1021.62,850.012 1035.32,849.877 1049.01,850.579 1062.7,852.228 1076.4,855.81 1090.09,855.424 1103.78,859.335 1117.48,856.86 1131.17,855.619 1144.86,854.315 1158.56,854.569 1172.25,857.277 1185.95,859.854 1199.64,862.469 1213.33,863.747 1227.03,861.914 1240.72,862.42 1254.41,862.456 1268.11,863.34 1281.8,864.551 1295.5,866.589 1309.19,867.064 1322.88,866.831 1336.58,866.814 1350.27,866.015 1363.96,866.221 1377.66,868.999 1391.35,870.11 1405.05,868.302 1418.74,868.149 1432.43,868.266 1446.13,868.892 1459.82,871.316 1473.51,870.823 1487.21,871.941 1500.9,872.466 1514.59,872.732 1528.29,872.065 1541.98,871.142 1555.68,873.246 1569.37,873.389 1583.06,875.643 1596.76,875.81 1610.45,876.608 1624.14,876.812 1637.84,876.432 1651.53,876.824 1665.23,876.172 1678.92,876.569 1692.61,878.319 1706.31,879.16 1720,880 " stroke-dasharray="5 15"  style="fill:rgb(0,0,255); fill-opacity:0; stroke:rgb(0,0,255); stroke-opacity:1; stroke-width:4" />
 </g>
</svg>
