<svg xml:space="preserve"
     xmlns="http://www.w3.org/2000/svg"
     xmlns:xlink="http://www.w3.org/1999/xlink"
     xmlns:html="http://www.w3.org/1999/xhtml"
id="rings-of-power-101-downloads-by-day-day" x="0px" y="0px"
width="1920.000000px" height="1080.000000px"
viewBox="0 0 1920.000000 1080.000000" enable-background="new 0 0 1920.000000 1080.000000" role="img">
<title>
rings-of-power-101-downloads-by-day-day
</title>
<desc>
Daily series for rings-of-power-101: upeers_total solid, useeds_total dashed.
</desc>
<title>
rings-of-power-101-downloads-by-day-day
</title>
 <g id="annotations">
<text x="960.000000" y="126.000000" font-family="Atkinson Hyperlegible" font-size="26.000000pt" text-anchor="middle" text-align="center" font-weight="600" font-style="normal"  style="fill:rgb(118,118,118); fill-opacity:1; stroke:rgb(118,118,118); stroke-opacity:0; stroke-width:0.5"> rings-of-power-101 downloads by day</text>
 <g id="axes-lines">
<text x="960.000000" y="1007.000000" font-family="Atkinson Hyperlegible" font-size="18.000000pt" text-anchor="middle" text-align="center" font-weight="500" font-style="normal"  style="fill:rgb(118,118,118); fill-opacity:1; stroke:rgb(118,118,118); stroke-opacity:0; stroke-width:0.5"> DAY</text>
<text x="73.000000" y="540.000000" font-family="Atkinson Hyperlegible" font-size="18.000000pt" text-anchor="middle" text-align="center" dominant-baseline="central" font-weight="500" font-style="normal"  style="fill:rgb(118,118,118); fill-opacity:1; stroke:rgb(118,118,118); stroke-opacity:0; stroke-width:0.5" transform="rotate(-90,73,540)"> DOWNLOADERS</text>
 </g>
 <g id="tic-y-label-lines">
<line x1="218.000000" y1="787.966738" x2="1702.000000" y2="787.966738" style="fill:rgb(0,0,255); fill-opacity:0; stroke:rgb(242,242,242); stroke-opacity:1; stroke-width:4" />
<line x1="218.000000" y1="719.966738" x2="1702.000000" y2="719.966738" style="fill:rgb(0,0,255); fill-opacity:0; stroke:rgb(242,242,242); stroke-opacity:1; stroke-width:4" />
<line x1="218.000000" y1="651.966738" x2="1702.000000" y2="651.966738" style="fill:rgb(0,0,255); fill-opacity:0; stroke:rgb(242,242,242); stroke-opacity:1; stroke-width:4" />
<line x1="218.000000" y1="583.966738" x2="1702.000000" y2="583.966738" style="fill:rgb(0,0,255); fill-opacity:0; stroke:rgb(242,242,242); stroke-opacity:1; stroke-width:4" />
<line x1="218.000000" y1="515.966738" x2="1702.000000" y2="515.966738" style="fill:rgb(0,0,255); fill-opacity:0; stroke:rgb(242,242,242); stroke-opacity:1; stroke-width:4" />
<line x1="218.000000" y1="447.966738" x2="1702.000000" y2="447.966738" style="fill:rgb(0,0,255); fill-opacity:0; stroke:rgb(242,242,242); stroke-opacity:1; stroke-width:4" />
<line x1="218.000000" y1="379.966738" x2="1702.000000" y2="379.966738" style="fill:rgb(0,0,255); fill-opacity:0; stroke:rgb(242,242,242); stroke-opacity:1; stroke-width:4" />
<line x1="218.000000" y1="311.966738" x2="1702.000000" y2="311.966738" style="fill:rgb(0,0,255); fill-opacity:0; stroke:rgb(242,242,242); stroke-opacity:1; stroke-width:4" />
<line x1="218.000000" y1="243.966738" x2="1702.000000" y2="243.966738" style="fill:rgb(0,0,255); fill-opacity:0; stroke:rgb(242,242,242); stroke-opacity:1; stroke-width:4" />
<line x1="218.000000" y1="175.966738" x2="1702.000000" y2="175.966738" style="fill:rgb(0,0,255); fill-opacity:0; stroke:rgb(242,242,242); stroke-opacity:1; stroke-width:4" />
 </g>
 <g id="tic-x-labels">
<text x="200.000000" y="898.000000" font-family="Atkinson Hyperlegible" font-size="14.000000pt" text-anchor="middle" text-align="center" dominant-baseline="central" font-weight="400" font-style="normal"  style="fill:rgb(118,118,118); fill-opacity:1; stroke:rgb(118,118,118); stroke-opacity:0; stroke-width:0.5"> 1</text>
<text x="275.580110" y="898.000000" font-family="Atkinson Hyperlegible" font-size="14.000000pt" text-anchor="middle" text-align="center" dominant-baseline="central" font-weight="400" font-style="normal"  style="fill:rgb(118,118,118); fill-opacity:1; stroke:rgb(118,118,118); stroke-opacity:0; stroke-width:0.5"> 10</text>
<text x="351.160221" y="898.000000" font-family="Atkinson Hyperlegible" font-size="14.000000pt" text-anchor="middle" text-align="center" dominant-baseline="central" font-weight="400" font-style="normal"  style="fill:rgb(118,118,118); fill-opacity:1; stroke:rgb(118,118,118); stroke-opacity:0; stroke-width:0.5"> 19</text>
<text x="426.740331" y="898.000000" font-family="Atkinson Hyperlegible" font-size="14.000000pt" text-anchor="middle" text-align="center" dominant-baseline="central" font-weight="400" font-style="normal"  style="fill:rgb(118,118,118); fill-opacity:1; stroke:rgb(118,118,118); stroke-opacity:0; stroke-width:0.5"> 28</text>
<text x="502.320442" y="898.000000" font-family="Atkinson Hyperlegible" font-size="14.000000pt" text-anchor="middle" text-align="center" dominant-baseline="central" font-weight="400" font-style="normal"  style="fill:rgb(118,118,118); fill-opacity:1; stroke:rgb(118,118,118); stroke-opacity:0; stroke-width:0.5"> 37</text>
<text x="577.900552" y="898.000000" font-family="Atkinson Hyperlegible" font-size="14.000000pt" text-anchor="middle" text-align="center" dominant-baseline="central" font-weight="400" font-style="normal"  style="fill:rgb(118,118,118); fill-opacity:1; stroke:rgb(118,118,118); stroke-opacity:0; stroke-width:0.5"> 46</text>
<text x="653.480663" y="898.000000" font-family="Atkinson Hyperlegible" font-size="14.000000pt" text-anchor="middle" text-align="center" dominant-baseline="central" font-weight="400" font-style="normal"  style="fill:rgb(118,118,118); fill-opacity:1; stroke:rgb(118,118,118); stroke-opacity:0; stroke-width:0.5"> 55</text>
<text x="729.060773" y="898.000000" font-family="Atkinson Hyperlegible" font-size="14.000000pt" text-anchor="middle" text-align="center" dominant-baseline="central" font-weight="400" font-style="normal"  style="fill:rgb(118,118,118); fill-opacity:1; stroke:rgb(118,118,118); stroke-opacity:0; stroke-width:0.5"> 64</text>
<text x="804.640884" y="898.000000" font-family="Atkinson Hyperlegible" font-size="14.000000pt" text-anchor="middle" text-align="center" dominant-baseline="central" font-weight="400" font-style="normal"  style="fill:rgb(118,118,118); fill-opacity:1; stroke:rgb(118,118,118); stroke-opacity:0; stroke-width:0.5"> 73</text>
<text x="880.220994" y="898.000000" font-family="Atkinson Hyperlegible" font-size="14.000000pt" text-anchor="middle" text-align="center" dominant-baseline="central" font-weight="400" font-style="normal"  style="fill:rgb(118,118,118); fill-opacity:1; stroke:rgb(118,118,118); stroke-opacity:0; stroke-width:0.5"> 82</text>
<text x="955.801105" y="898.000000" font-family="Atkinson Hyperlegible" font-size="14.000000pt" text-anchor="middle" text-align="center" dominant-baseline="central" font-weight="400" font-style="normal"  style="fill:rgb(118,118,118); fill-opacity:1; stroke:rgb(118,118,118); stroke-opacity:0; stroke-width:0.5"> 91</text>
<text x="1031.381215" y="898.000000" font-family="Atkinson Hyperlegible" font-size="14.000000pt" text-anchor="middle" text-align="center" dominant-baseline="central" font-weight="400" font-style="normal"  style="fill:rgb(118,118,118); fill-opacity:1; stroke:rgb(118,118,118); stroke-opacity:0; stroke-width:0.5"> 100</text>
<text x="1106.961326" y="898.000000" font-family="Atkinson Hyperlegible" font-size="14.000000pt" text-anchor="middle" text-align="center" dominant-baseline="central" font-weight="400" font-style="normal"  style="fill:rgb(118,118,118); fill-opacity:1; stroke:rgb(118,118,118); stroke-opacity:0; stroke-width:0.5"> 109</text>
<text x="1182.541436" y="898.000000" font-family="Atkinson Hyperlegible" font-size="14.000000pt" text-anchor="middle" text-align="center" dominant-baseline="central" font-weight="400" font-style="normal"  style="fill:rgb(118,118,118); fill-opacity:1; stroke:rgb(118,118,118); stroke-opacity:0; stroke-width:0.5"> 118</text>
<text x="1258.121547" y="898.000000" font-family="Atkinson Hyperlegible" font-size="14.000000pt" text-anchor="middle" text-align="center" dominant-baseline="central" font-weight="400" font-style="normal"  style="fill:rgb(118,118,118); fill-opacity:1; stroke:rgb(118,118,118); stroke-opacity:0; stroke-width:0.5"> 127</text>
<text x="1333.701657" y="898.000000" font-family="Atkinson Hyperlegible" font-size="14.000000pt" text-anchor="middle" text-align="center" dominant-baseline="central" font-weight="400" font-style="normal"  style="fill:rgb(118,118,118); fill-opacity:1; stroke:rgb(118,118,118); stroke-opacity:0; stroke-width:0.5"> 136</text>
<text x="1409.281768" y="898.000000" font-family="Atkinson Hyperlegible" font-size="14.000000pt" text-anchor="middle" text-align="center" dominant-baseline="central" font-weight="400" font-style="normal"  style="fill:rgb(118,118,118); fill-opacity:1; stroke:rgb(118,118,118); stroke-opacity:0; stroke-width:0.5"> 145</text>
<text x="1484.861878" y="898.000000" font-family="Atkinson Hyperlegible" font-size="14.000000pt" text-anchor="middle" text-align="center" dominant-baseline="central" font-weight="400" font-style="normal"  style="fill:rgb(118,118,118); fill-opacity:1; stroke:rgb(118,118,118); stroke-opacity:0; stroke-width:0.5"> 154</text>
<text x="1560.441989" y="898.000000" font-family="Atkinson Hyperlegible" font-size="14.000000pt" text-anchor="middle" text-align="center" dominant-baseline="central" font-weight="400" font-style="normal"  style="fill:rgb(118,118,118); fill-opacity:1; stroke:rgb(118,118,118); stroke-opacity:0; stroke-width:0.5"> 163</text>
<text x="1636.022099" y="898.000000" font-family="Atkinson Hyperlegible" font-size="14.000000pt" text-anchor="middle" text-align="center" dominant-baseline="central" font-weight="400" font-style="normal"  style="fill:rgb(118,118,118); fill-opacity:1; stroke:rgb(118,118,118); stroke-opacity:0; stroke-width:0.5"> 172</text>
<text x="1711.602210" y="898.000000" font-family="Atkinson Hyperlegible" font-size="14.000000pt" text-anchor="middle" text-align="center" dominant-baseline="central" font-weight="400" font-style="normal"  style="fill:rgb(118,118,118); fill-opacity:1; stroke:rgb(118,118,118); stroke-opacity:0; stroke-width:0.5"> 181</text>
 </g>
 <g id="tic-y-labels">
<text x="164.000000" y="857.966738" font-family="Atkinson Hyperlegible" font-size="14.000000pt" text-anchor="middle" text-align="center" dominant-baseline="central" font-weight="400" font-style="normal"  style="fill:rgb(118,118,118); fill-opacity:1; stroke:rgb(118,118,118); stroke-opacity:0; stroke-width:0.5"> 29k</text>
<text x="1756.000000" y="857.966738" font-family="Atkinson Hyperlegible" font-size="14.000000pt" text-anchor="middle" text-align="center" dominant-baseline="central" font-weight="400" font-style="normal"  style="fill:rgb(118,118,118); fill-opacity:1; stroke:rgb(118,118,118); stroke-opacity:0; stroke-width:0.5"> 29k</text>
<text x="164.000000" y="789.966738" font-family="Atkinson Hyperlegible" font-size="14.000000pt" text-anchor="middle" text-align="center" dominant-baseline="central" font-weight="400" font-style="normal"  style="fill:rgb(118,118,118); fill-opacity:1; stroke:rgb(118,118,118); stroke-opacity:0; stroke-width:0.5"> 118k</text>
<text x="1756.000000" y="789.966738" font-family="Atkinson Hyperlegible" font-size="14.000000pt" text-anchor="middle" text-align="center" dominant-baseline="central" font-weight="400" font-style="normal"  style="fill:rgb(118,118,118); fill-opacity:1; stroke:rgb(118,118,118); stroke-opacity:0; stroke-width:0.5"> 118k</text>
<text x="164.000000" y="721.966738" font-family="Atkinson Hyperlegible" font-size="14.000000pt" text-anchor="middle" text-align="center" dominant-baseline="central" font-weight="400" font-style="normal"  style="fill:rgb(118,118,118); fill-opacity:1; stroke:rgb(118,118,118); stroke-opacity:0; stroke-width:0.5"> 207k</text>
<text x="1756.000000" y="721.966738" font-family="Atkinson Hyperlegible" font-size="14.000000pt" text-anchor="middle" text-align="center" dominant-baseline="central" font-weight="400" font-style="normal"  style="fill:rgb(118,118,118); fill-opacity:1; stroke:rgb(118,118,118); stroke-opacity:0; stroke-width:0.5"> 207k</text>
<text x="164.000000" y="653.966738" font-family="Atkinson Hyperlegible" font-size="14.000000pt" text-anchor="middle" text-align="center" dominant-baseline="central" font-weight="400" font-style="normal"  style="fill:rgb(118,118,118); fill-opacity:1; stroke:rgb(118,118,118); stroke-opacity:0; stroke-width:0.5"> 297k</text>
<text x="1756.000000" y="653.966738" font-family="Atkinson Hyperlegible" font-size="14.000000pt" text-anchor="middle" text-align="center" dominant-baseline="central" font-weight="400" font-style="normal"  style="fill:rgb(118,118,118); fill-opacity:1; stroke:rgb(118,118,118); stroke-opacity:0; stroke-width:0.5"> 297k</text>
<text x="164.000000" y="585.966738" font-family="Atkinson Hyperlegible" font-size="14.000000pt" text-anchor="middle" text-align="center" dominant-baseline="central" font-weight="400" font-style="normal"  style="fill:rgb(118,118,118); fill-opacity:1; stroke:rgb(118,118,118); stroke-opacity:0; stroke-width:0.5"> 386k</text>
<text x="1756.000000" y="585.966738" font-family="Atkinson Hyperlegible" font-size="14.000000pt" text-anchor="middle" text-align="center" dominant-baseline="central" font-weight="400" font-style="normal"  style="fill:rgb(118,118,118); fill-opacity:1; stroke:rgb(118,118,118); stroke-opacity:0; stroke-width:0.5"> 386k</text>
<text x="164.000000" y="517.966738" font-family="Atkinson Hyperlegible" font-size="14.000000pt" text-anchor="middle" text-align="center" dominant-baseline="central" font-weight="400" font-style="normal"  style="fill:rgb(118,118,118); fill-opacity:1; stroke:rgb(118,118,118); stroke-opacity:0; stroke-width:0.5"> 475k</text>
<text x="1756.000000" y="517.966738" font-family="Atkinson Hyperlegible" font-size="14.000000pt" text-anchor="middle" text-align="center" dominant-baseline="central" font-weight="400" font-style="normal"  style="fill:rgb(118,118,118); fill-opacity:1; stroke:rgb(118,118,118); stroke-opacity:0; stroke-width:0.5"> 475k</text>
<text x="164.000000" y="449.966738" font-family="Atkinson Hyperlegible" font-size="14.000000pt" text-anchor="middle" text-align="center" dominant-baseline="central" font-weight="400" font-style="normal"  style="fill:rgb(118,118,118); fill-opacity:1; stroke:rgb(118,118,118); stroke-opacity:0; stroke-width:0.5"> 564k</text>
<text x="1756.000000" y="449.966738" font-family="Atkinson Hyperlegible" font-size="14.000000pt" text-anchor="middle" text-align="center" dominant-baseline="central" font-weight="400" font-style="normal"  style="fill:rgb(118,118,118); fill-opacity:1; stroke:rgb(118,118,118); stroke-opacity:0; stroke-width:0.5"> 564k</text>
<text x="164.000000" y="381.966738" font-family="Atkinson Hyperlegible" font-size="14.000000pt" text-anchor="middle" text-align="center" dominant-baseline="central" font-weight="400" font-style="normal"  style="fill:rgb(118,118,118); fill-opacity:1; stroke:rgb(118,118,118); stroke-opacity:0; stroke-width:0.5"> 653k</text>
<text x="1756.000000" y="381.966738" font-family="Atkinson Hyperlegible" font-size="14.000000pt" text-anchor="middle" text-align="center" dominant-baseline="central" font-weight="400" font-style="normal"  style="fill:rgb(118,118,118); fill-opacity:1; stroke:rgb(118,118,118); stroke-opacity:0; stroke-width:0.5"> 653k</text>
<text x="164.000000" y="313.966738" font-family="Atkinson Hyperlegible" font-size="14.000000pt" text-anchor="middle" text-align="center" dominant-baseline="central" font-weight="400" font-style="normal"  style="fill:rgb(118,118,118); fill-opacity:1; stroke:rgb(118,118,118); stroke-opacity:0; stroke-width:0.5"> 743k</text>
<text x="1756.000000" y="313.966738" font-family="Atkinson Hyperlegible" font-size="14.000000pt" text-anchor="middle" text-align="center" dominant-baseline="central" font-weight="400" font-style="normal"  style="fill:rgb(118,118,118); fill-opacity:1; stroke:rgb(118,118,118); stroke-opacity:0; stroke-width:0.5"> 743k</text>
<text x="164.000000" y="245.966738" font-family="Atkinson Hyperlegible" font-size="14.000000pt" text-anchor="middle" text-align="center" dominant-baseline="central" font-weight="400" font-style="normal"  style="fill:rgb(118,118,118); fill-opacity:1; stroke:rgb(118,118,118); stroke-opacity:0; stroke-width:0.5"> 832k</text>
<text x="1756.000000" y="245.966738" font-family="Atkinson Hyperlegible" font-size="14.000000pt" text-anchor="middle" text-align="center" dominant-baseline="central" font-weight="400" font-style="normal"  style="fill:rgb(118,118,118); fill-opacity:1; stroke:rgb(118,118,118); stroke-opacity:0; stroke-width:0.5"> 832k</text>
<text x="164.000000" y="177.966738" font-family="Atkinson Hyperlegible" font-size="14.000000pt" text-anchor="middle" text-align="center" dominant-baseline="central" font-weight="400" font-style="normal"  style="fill:rgb(118,118,118); fill-opacity:1; stroke:rgb(118,118,118); stroke-opacity:0; stroke-width:0.5"> 921k</text>
<text x="1756.000000" y="177.966738" font-family="Atkinson Hyperlegible" font-size="14.000000pt" text-anchor="middle" text-align="center" dominant-baseline="central" font-weight="400" font-style="normal"  style="fill:rgb(118,118,118); fill-opacity:1; stroke:rgb(118,118,118); stroke-opacity:0; stroke-width:0.5"> 921k</text>
 </g>
 </g>
 <g id="weekend-bands-rings-of-power-101 downloads by day">
<rect x="200.000000" y="200.000000" width="16.795580" height="680.000000"
 style="fill:rgb(148,148,148); fill-opacity:0.15; stroke:rgb(148,148,148); stroke-opacity:0; stroke-width:0" />
<rect x="258.784530" y="200.000000" width="16.795580" height="680.000000"
 style="fill:rgb(148,148,148); fill-opacity:0.15; stroke:rgb(148,148,148); stroke-opacity:0; stroke-width:0" />
<rect x="317.569061" y="200.000000" width="16.795580" height="680.000000"
 style="fill:rgb(148,148,148); fill-opacity:0.15; stroke:rgb(148,148,148); stroke-opacity:0; stroke-width:0" />
<rect x="376.353591" y="200.000000" width="16.795580" height="680.000000"
 style="fill:rgb(148,148,148); fill-opacity:0.15; stroke:rgb(148,148,148); stroke-opacity:0; stroke-width:0" />
<rect x="435.138122" y="200.000000" width="16.795580" height="680.000000"
 style="fill:rgb(148,148,148); fill-opacity:0.15; stroke:rgb(148,148,148); stroke-opacity:0; stroke-width:0" />
<rect x="493.922652" y="200.000000" width="16.795580" height="680.000000"
 style="fill:rgb(148,148,148); fill-opacity:0.15; stroke:rgb(148,148,148); stroke-opacity:0; stroke-width:0" />
<rect x="552.707182" y="200.000000" width="16.795580" height="680.000000"
 style="fill:rgb(148,148,148); fill-opacity:0.15; stroke:rgb(148,148,148); stroke-opacity:0; stroke-width:0" />
<rect x="611.491713" y="200.000000" width="16.795580" height="680.000000"
 style="fill:rgb(148,148,148); fill-opacity:0.15; stroke:rgb(148,148,148); stroke-opacity:0; stroke-width:0" />
<rect x="670.276243" y="200.000000" width="16.795580" height="680.000000"
 style="fill:rgb(148,148,148); fill-opacity:0.15; stroke:rgb(148,148,148); stroke-opacity:0; stroke-width:0" />
<rect x="729.060773" y="200.000000" width="16.795580" height="680.000000"
 style="fill:rgb(148,148,148); fill-opacity:0.15; stroke:rgb(148,148,148); stroke-opacity:0; stroke-width:0" />
<rect x="787.845304" y="200.000000" width="16.795580" height="680.000000"
 style="fill:rgb(148,148,148); fill-opacity:0.15; stroke:rgb(148,148,148); stroke-opacity:0; stroke-width:0" />
<rect x="846.629834" y="200.000000" width="16.795580" height="680.000000"
 style="fill:rgb(148,148,148); fill-opacity:0.15; stroke:rgb(148,148,148); stroke-opacity:0; stroke-width:0" />
<rect x="905.414365" y="200.000000" width="16.795580" height="680.000000"
 style="fill:rgb(148,148,148); fill-opacity:0.15; stroke:rgb(148,148,148); stroke-opacity:0; stroke-width:0" />
<rect x="964.198895" y="200.000000" width="16.795580" height="680.000000"
 style="fill:rgb(148,148,148); fill-opacity:0.15; stroke:rgb(148,148,148); stroke-opacity:0; stroke-width:0" />
<rect x="1022.983425" y="200.000000" width="16.795580" height="680.000000"
 style="fill:rgb(148,148,148); fill-opacity:0.15; stroke:rgb(148,148,148); stroke-opacity:0; stroke-width:0" />
<rect x="1081.767956" y="200.000000" width="16.795580" height="680.000000"
 style="fill:rgb(148,148,148); fill-opacity:0.15; stroke:rgb(148,148,148); stroke-opacity:0; stroke-width:0" />
<rect x="1140.552486" y="200.000000" width="16.795580" height="680.000000"
 style="fill:rgb(148,148,148); fill-opacity:0.15; stroke:rgb(148,148,148); stroke-opacity:0; stroke-width:0" />
<rect x="1199.337017" y="200.000000" width="16.795580" height="680.000000"
 style="fill:rgb(148,148,148); fill-opacity:0.15; stroke:rgb(148,148,148); stroke-opacity:0; stroke-width:0" />
<rect x="1258.121547" y="200.000000" width="16.795580" height="680.000000"
 style="fill:rgb(148,148,148); fill-opacity:0.15; stroke:rgb(148,148,148); stroke-opacity:0; stroke-width:0" />
<rect x="1316.906077" y="200.000000" width="16.795580" height="680.000000"
 style="fill:rgb(148,148,148); fill-opacity:0.15; stroke:rgb(148,148,148); stroke-opacity:0; stroke-width:0" />
<rect x="1375.690608" y="200.000000" width="16.795580" height="680.000000"
 style="fill:rgb(148,148,148); fill-opacity:0.15; stroke:rgb(148,148,148); stroke-opacity:0; stroke-width:0" />
<rect x="1434.475138" y="200.000000" width="16.795580" height="680.000000"
 style="fill:rgb(148,148,148); fill-opacity:0.15; stroke:rgb(148,148,148); stroke-opacity:0; stroke-width:0" />
<rect x="1493.259669" y="200.000000" width="16.795580" height="680.000000"
 style="fill:rgb(148,148,148); fill-opacity:0.15; stroke:rgb(148,148,148); stroke-opacity:0; stroke-width:0" />
<rect x="1552.044199" y="200.000000" width="16.795580" height="680.000000"
 style="fill:rgb(148,148,148); fill-opacity:0.15; stroke:rgb(148,148,148); stroke-opacity:0; stroke-width:0" />
<rect x="1610.828729" y="200.000000" width="16.795580" height="680.000000"
 style="fill:rgb(148,148,148); fill-opacity:0.15; stroke:rgb(148,148,148); stroke-opacity:0; stroke-width:0" />
<rect x="1669.613260" y="200.000000" width="16.795580" height="680.000000"
 style="fill:rgb(148,148,148); fill-opacity:0.15; stroke:rgb(148,148,148); stroke-opacity:0; stroke-width:0" />
 </g>
 <g id="polyline-rings-of-power-101 downloads by day">
<polyline points="200,260.08 208.398,213.72 216.796,200 225.193,245.933 233.591,368.935 241.989,438.336 250.387,472.422 258.785,451.917 267.182,469.621 275.58,497.356 283.978,517.119 292.376,563.644 300.773,590.934 309.171,610.533 317.569,596.184 325.967,592.785 334.365,614.676 342.762,612.785 351.16,638.775 359.558,655.778 367.956,662.99 376.354,648.849 384.751,646.445 393.149,651.15 401.547,648.38 409.945,674.178 418.343,691.386 426.74,699.086 435.138,687.992 443.536,679.899 451.934,685.686 460.331,681.005 468.729,698.452 477.127,712.371 485.525,719.607 493.923,708.375 502.32,706.566 510.718,704.544 519.116,702.728 527.514,718.163 535.912,728.484 544.309,724.994 552.707,712.346 561.105,713.73 569.503,722.144 577.901,718.622 586.298,732.475 594.696,739.102 603.094,746.721 611.492,746.962 619.89,747.923 628.287,749.848 636.685,746.8 645.083,751.834 653.481,760.573 661.878,763.051 670.276,763.709 678.674,769.428 687.072,766.627 695.47,769.278 703.867,776.646 712.265,779.028 720.663,780.385 729.061,781.97 737.459,783.42 745.856,785.483 754.254,787.084 762.652,789.85 771.05,791.582 779.448,787.491 787.845,785.041 796.243,786.404 804.641,781.017 813.039,781.111 821.436,789.416 829.834,796.783 838.232,843.552 846.63,788.306 855.028,791.871 863.425,792.673 871.823,791.284 880.221,791.788 888.619,796.114 897.017,798.771 905.414,800.474 913.812,802.091 922.21,798.643 930.608,799.223 939.006,803.589 947.403,805.171 955.801,809.083 964.199,808.936 972.597,811.147 980.994,808.897 989.392,812.297 997.79,811.772 1006.19,810.272 1014.59,810.981 1022.98,814.87 1031.38,815.425 1039.78,814.911 1048.18,812.323 1056.57,814.543 1064.97,817.318 1073.37,821.977 1081.77,819.269 1090.17,816.402 1098.56,823.413 1106.96,821.863 1115.36,824.264 1123.76,821.357 1132.15,822.076 1140.55,822.221 1148.95,825.49 1157.35,828.255 1165.75,824.045 1174.14,825.049 1182.54,825.199 1190.94,828.402 1199.34,827.111 1207.73,832.067 1216.13,830.929 1224.53,826.712 1232.93,826.564 1241.33,828.372 1249.72,827.738 1258.12,831.348 1266.52,832.219 1274.92,827.79 1283.31,831.454 1291.71,833.306 1300.11,830.431 1308.51,830.009 1316.91,831.948 1325.3,830.142 1333.7,830.13 1342.1,826.609 1350.5,830.642 1358.9,834.036 1367.29,832.359 1375.69,832.081 1384.09,834.014 1392.49,830.642 1400.88,831.384 1409.28,833.978 1417.68,831.501 1426.08,833.24 1434.48,833.149 1442.87,832.588 1451.27,823.766 1459.67,829.329 1468.07,827.731 1476.46,828.366 1484.86,829.922 1493.26,831.78 1501.66,833.611 1510.06,830.787 1518.45,831.709 1526.85,836.199 1535.25,833.633 1543.65,834.281 1552.04,836.164 1560.44,835.209 1568.84,833.421 1577.24,833.403 1585.64,831.12 1594.03,836.048 1602.43,834.29 1610.83,832.988 1619.23,833.345 1627.62,835.875 1636.02,832.72 1644.42,830.31 1652.82,836.053 1661.22,838.904 1669.61,830.044 1678.01,834.263 1686.41,836.827 1694.81,833.099 1703.2,837.213 1711.6,834.013 1720,834.745 "  style="fill:rgb(0,0,255); fill-opacity:0; stroke:rgb(0,0,255); stroke-opacity:1; stroke-width:4" />
 </g>
 <g id="polyline-rings-of-power-101 downloads by day uploaders">
<polyline points="200,713.763 208.398,637.361 216.796,572.55 225.193,606.216 233.591,657.602 241.989,687.017 250.387,699.326 258.785,692.353 267.182,698.086 275.58,708.965 283.978,716.484 292.376,736.356 300.773,746.992 309.171,755.212 317.569,750.388 325.967,748.815 334.365,756.049 342.762,752.908 351.16,767.13 359.558,777.067 367.956,780.15 376.354,775.452 384.751,775.286 393.149,776.573 401.547,775.607 409.945,785.925 418.343,794.618 426.74,797.024 435.138,795.526 443.536,790.979 451.934,791.975 460.331,790.423 468.729,798.98 477.127,804.119 485.525,807.446 493.923,802.866 502.32,802.422 510.718,802.484 519.116,800.606 527.514,809.023 535.912,814.809 544.309,815.439 552.707,807.51 561.105,802.435 569.503,802.204 577.901,802.751 586.298,809.829 594.696,814.648 603.094,819.933 611.492,824.351 619.89,825.173 628.287,824.869 636.685,823.366 645.083,828.575 653.481,831.2 661.878,831.965 670.276,829.928 678.674,831.075 687.072,829.566 695.47,832.617 703.867,837.057 712.265,839.654 720.663,842.379 729.061,843.242 737.459,840.286 745.856,839.485 754.254,843.046 762.652,847.147 771.05,847.591 779.448,849.136 787.845,847.58 796.243,840.747 804.641,838.478 813.039,839.42 821.436,847.282 829.834,852.327 838.232,875.884 846.63,850.847 855.028,850.016 863.425,851.943 871.823,852.529 880.221,853.337 888.619,854.846 897.017,855.996 905.414,856.546 913.812,857.703 922.21,857.359 930.608,858.257 939.006,858.383 947.403,859.56 955.801,862.657 964.199,862.811 972.597,861.97 980.994,861.15 989.392,862.665 997.79,864.819 1006.19,864.426 1014.59,864.786 1022.98,865.242 1031.38,865.017 1039.78,864.807 1048.18,865.44 1056.57,866.54 1064.97,866.779 1073.37,868.777 1081.77,869.592 1090.17,869.536 1098.56,869.854 1106.96,869.584 1115.36,870.372 1123.76,869.318 1132.15,869.695 1140.55,871.192 1148.95,871.971 1157.35,872.251 1165.75,869.997 1174.14,869.427 1182.54,870.291 1190.94,870.068 1199.34,870.494 1207.73,871.603 1216.13,872.013 1224.53,870.418 1232.93,870.517 1241.33,871.372 1249.72,871.75 1258.12,872.683 1266.52,872.472 1274.92,873.032 1283.31,873.457 1291.71,873.908 1300.11,872.775 1308.51,875.212 1316.91,874.899 1325.3,871.27 1333.7,871.982 1342.1,873.225 1350.5,873.073 1358.9,873.661 1367.29,873.198 1375.69,874.628 1384.09,874.348 1392.49,873.721 1400.88,874.504 1409.28,874.396 1417.68,875.261 1426.08,872.051 1434.48,875.957 1442.87,874.355 1451.27,873.577 1459.67,872.57 1468.07,873.453 1476.46,872.21 1484.86,874.528 1493.26,877.053 1501.66,876.288 1510.06,876.149 1518.45,876.046 1526.85,873.621 1535.25,875.262 1543.65,879.595 1552.04,879.909 1560.44,878.681 1568.84,878.237 1577.24,878.268 1585.64,874.863 1594.03,877.216 1602.43,878.92 1610.83,880 1619.23,879.433 1627.62,877.418 1636.02,875.744 1644.42,878.454 1652.82,876.19 1661.22,876.727 1669.61,874.828 1678.01,877.889 1686.41,877.157 1694.81,876.552 1703.2,875.969 1711.6,877.565 1720,878.867 " stroke-dasharray="5 15"  style="fill:rgb(0,0,255); fill-opacity:0; stroke:rgb(0,0,255); stroke-opacity:1; stroke-width:4" />
 </g>
</svg>
